<svg width="297" height="58" viewBox="0 0 297 58" fill="none" xmlns="http://www.w3.org/2000/svg">
<path fill-rule="evenodd" clip-rule="evenodd" d="M39.3422 5.20613C39.6424 5.3395 39.9579 5.47789 40.3022 5.62396C40.611 5.75493 40.9428 5.89207 41.3075 6.03728L41.234 0.183072H0.0911865C0.246526 0.527302 0.387163 0.860218 0.514484 1.18307C1.73674 4.2824 1.73186 6.45431 1.72658 8.80408C1.72623 8.95902 1.72588 9.11474 1.72588 9.27155V48.7694C1.72588 48.9321 1.72623 49.0927 1.72658 49.2518C1.73188 51.6571 1.73636 53.697 0.505905 56.8578C0.380853 57.1791 0.243045 57.5119 0.0911865 57.8578H42.2626L43.1442 52.112C43.1326 52.112 43.1209 52.112 43.1139 52.1074C43.1099 52.1047 43.1075 52.1006 43.1075 52.094L43.2177 51.6061C43.2177 51.6061 43.1926 51.6202 43.1442 51.6461C43.0388 51.7026 42.823 51.8153 42.5175 51.9607C42.4889 51.9743 42.4595 51.9882 42.4293 52.0024C42.3666 52.0318 42.3006 52.0624 42.2314 52.094C42.1977 52.1094 42.1633 52.125 42.1281 52.1408C42.1218 52.1436 42.1154 52.1465 42.109 52.1493C40.6418 52.8075 37.9207 53.8234 35.1912 53.7744H11.332V31.1706H36.4953L37.7994 26.7258H11.332V4.14008H33.8871C35.8891 4.12201 37.8177 4.646 39.3422 5.20613ZM36.4638 27.7258H10.332V3.14008H33.8827C36.0526 3.12133 38.1077 3.6872 39.6871 4.26748L39.7181 4.27886L39.7482 4.29225C39.9227 4.36976 40.1018 4.44875 40.2885 4.52981L40.2465 1.18307H1.58534C2.73732 4.2722 2.73203 6.51089 2.72662 8.80031C2.72625 8.95706 2.72588 9.11404 2.72588 9.27155V48.7694C2.72588 48.9311 2.72624 49.0914 2.72659 49.2506C2.73185 51.6054 2.73657 53.7204 1.57537 56.8578H41.4044L41.9491 53.3076C41.6764 53.4209 41.3776 53.5388 41.057 53.6563C39.5 54.2269 37.3652 54.8118 35.1826 54.7744H10.332V30.1706H35.7465L36.4638 27.7258ZM78.63 57.8398H82.5238L102.985 20.5644L106.732 47.7395C107.139 50.6417 107.185 54.1273 106.793 56.8578C106.743 57.2042 106.686 57.5385 106.622 57.8578H119.112C118.95 57.505 118.8 57.1745 118.66 56.8578C117.628 54.5147 117.157 52.929 116.559 48.679L109.726 0.183072H107.191L82.9463 45.5351L58.683 0.183072H55.3218L48.7096 48.7874C48.1279 53.0472 47.7878 54.5524 46.7517 56.8578C46.61 57.1732 46.4552 57.5035 46.2851 57.8578H53.5953C53.539 57.5785 53.4944 57.2411 53.4608 56.8578C53.2746 54.7375 53.424 51.2126 53.7973 48.3357L57.8381 18.884L78.63 57.8398ZM52.4573 56.8578C52.3815 55.9395 52.3657 54.8254 52.3935 53.6624C52.4356 51.9016 52.5804 49.9422 52.8056 48.207L52.8066 48.1998L57.267 15.6901L79.2298 56.8398H81.932L103.563 17.4336L107.722 47.6004C107.722 47.6011 107.722 47.6018 107.723 47.6025C108.133 50.5239 108.19 54.0353 107.802 56.8578H117.57C117.195 55.9817 116.888 55.1684 116.62 54.245C116.217 52.8555 115.91 51.2466 115.568 48.8185L108.857 1.18307H107.791L82.9466 47.6556L58.0839 1.18307H56.195L49.7004 48.9222C49.3698 51.3435 49.1103 52.9315 48.7457 54.2929C48.5027 55.1997 48.2163 55.9945 47.8444 56.8578H52.4573ZM126.605 49.8354C125.101 53.0813 124.281 54.5337 122.451 56.8578C122.213 57.1596 121.958 57.476 121.683 57.8129C121.671 57.8279 121.659 57.8428 121.646 57.8578H129.287L138.893 36.7357H158.473L168.208 57.8578H181.12C180.748 57.5057 180.403 57.1745 180.081 56.8578C177.444 54.2663 176.323 52.6465 174.195 48.4441L151.861 0.183072H149.308L126.605 49.8354ZM149.95 1.18307L127.515 50.2512L127.513 50.2559C126.115 53.2718 125.279 54.7983 123.715 56.8578H128.643L138.249 35.7357H159.113L168.848 56.8578H178.669C177.823 55.9889 177.121 55.1849 176.468 54.3012C175.411 52.8724 174.504 51.2671 173.303 48.8959L173.295 48.8801L151.221 1.18307H149.95ZM187.861 49.8354C186.356 53.0813 185.536 54.5337 183.706 56.8578C183.468 57.1596 183.213 57.476 182.938 57.8129C182.926 57.8279 182.914 57.8428 182.901 57.8578H190.542L200.148 36.7357H219.728L229.463 57.8578H242.393C242.021 57.5057 241.676 57.1745 241.354 56.8578C238.718 54.2663 237.596 52.6465 235.469 48.4441L213.116 0.183072H210.563L187.861 49.8354ZM211.205 1.18307L188.77 50.2512L188.768 50.2559C187.37 53.2718 186.534 54.7983 184.97 56.8578H189.898L199.505 35.7357H220.368L230.103 56.8578H239.943C239.097 55.9889 238.395 55.1849 237.741 54.3012C236.685 52.8724 235.777 51.2671 234.577 48.8959L234.569 48.8803L212.477 1.18307H211.205ZM269.719 31.7954C269.111 31.2103 268.769 30.8815 268.769 30.8815L271.23 30.6466C279.532 29.4541 286.603 24.7382 286.603 15.975C286.603 0.0512915 267.797 0.11398 258.655 0.144452C258.274 0.145722 257.91 0.146935 257.565 0.146935H244.928C245.083 0.491165 245.224 0.824081 245.351 1.14693C246.573 4.24627 246.569 6.41819 246.563 8.76796C246.563 8.9229 246.563 9.07861 246.563 9.23541V48.7694C246.563 48.9321 246.563 49.0927 246.563 49.2518C246.569 51.6571 246.573 53.697 245.343 56.8578C245.218 57.1791 245.08 57.5119 244.928 57.8578H257.822C257.678 57.512 257.547 57.1792 257.427 56.8578C256.169 53.4853 256.169 51.3758 256.169 48.7694V31.008C256.463 31.0253 256.795 31.0611 257.169 31.1482C258.358 31.4259 259.959 32.2245 262.028 34.6036C271.524 45.6616 279.11 52.636 284.969 57.894H296.852C296.739 57.7839 296.376 57.4345 295.815 56.894C291.307 52.5543 273.979 35.892 269.719 31.7954ZM294.373 56.894C291.751 54.3713 286.68 49.4938 281.683 44.6884C278.245 41.3819 274.843 38.1104 272.301 35.6655L268.081 31.607L268.077 31.6035L268.076 31.6026C268.076 31.6024 268.076 31.6023 268.769 30.8815L268.076 31.6026L266.506 30.0929L271.111 29.6534C275.123 29.0737 278.76 27.6531 281.376 25.3931C283.972 23.1512 285.603 20.0534 285.603 15.975C285.603 12.0526 284.405 9.2361 282.539 7.1755C280.654 5.09365 278.017 3.70792 275.03 2.79742C269.497 1.11109 263.045 1.13104 258.646 1.14465C258.27 1.14582 257.909 1.14693 257.565 1.14693H246.422C247.574 4.23608 247.569 6.47476 247.563 8.7642C247.563 8.92094 247.563 9.07791 247.563 9.23541V48.7694C247.563 48.9311 247.563 49.0914 247.563 49.2506C247.569 51.6054 247.573 53.7204 246.412 56.8578H256.362C255.171 53.5193 255.169 51.337 255.169 48.7694V29.9475L256.227 30.0097C256.942 30.0517 257.871 30.1926 258.998 30.7713C260.109 31.3425 261.362 32.3145 262.783 33.9474L262.787 33.9521C272.09 44.7856 279.548 51.68 285.352 56.894H294.373ZM270.031 28.2873L270.036 28.2953C276.008 26.0723 277.971 20.4914 277.776 15.9142L277.776 15.9081C277.669 13.731 277.113 10.1381 274.032 7.20356C270.951 4.26953 265.542 2.17752 256.148 2.54458L255.187 2.58213V29.0825L256.133 29.1336L256.187 28.1351C256.133 29.1336 256.133 29.1336 256.133 29.1336L256.136 29.1338L256.165 29.1353L256.255 29.1399C256.333 29.1437 256.447 29.1492 256.593 29.1557C256.886 29.1688 257.306 29.1859 257.819 29.2026C258.843 29.2359 260.242 29.2673 261.735 29.2593C263.225 29.2513 264.822 29.2041 266.241 29.0778C267.622 28.9548 268.957 28.748 269.843 28.3673L269.849 28.3647C269.878 28.3519 269.905 28.3403 269.929 28.3301C269.967 28.3137 269.998 28.3007 270.022 28.2911L270.031 28.2873ZM269.709 27.3499C269.711 27.3493 269.712 27.3488 269.714 27.3483C269.777 27.3245 269.84 27.3004 269.902 27.2758C275.172 25.1996 276.958 20.2 276.777 15.9569C276.575 11.8192 274.683 2.82108 256.187 3.54382V28.1351C256.187 28.1351 266.546 28.6952 269.448 27.4485C269.461 27.4427 269.474 27.4372 269.486 27.4319C269.58 27.3913 269.646 27.3642 269.68 27.3505C269.681 27.3499 269.682 27.3494 269.684 27.3488C269.698 27.343 269.705 27.3401 269.705 27.3401L269.687 27.3582C269.695 27.3554 269.702 27.3526 269.709 27.3499ZM200.467 33.7064L209.857 13.0908L219.401 33.7064H200.467ZM139.231 33.7064L148.621 13.0908L158.164 33.7064H139.231ZM217.836 32.7064L209.865 15.4871L202.022 32.7064H217.836ZM156.599 32.7064L148.628 15.4871L140.785 32.7064H156.599Z" fill="white" fill-opacity="0.25"/>
</svg>
